<svg xmlns="http://www.w3.org/2000/svg" viewBox="0 0 64 64"><path d="M55.945 41.038c0-5.435-4.422-9.856-9.856-9.856s-9.856 4.422-9.856 9.856 4.422 9.854 9.856 9.854 9.856-4.42 9.856-9.854z" fill="none"/><path d="M33.555 53.731H6.104a2.75 2.75 0 0 1-2.748-2.747V9.902a2.75 2.75 0 0 1 2.748-2.748h42.477a2.75 2.75 0 0 1 2.748 2.748V24.61a1 1 0 1 0 2 0V9.902a4.753 4.753 0 0 0-4.748-4.748H6.104a4.753 4.753 0 0 0-4.748 4.748v41.083a4.753 4.753 0 0 0 4.748 4.747h27.45a1 1 0 1 0 .001-2.001z"/><path d="M63.04 56.575l-7.898-7.899a11.792 11.792 0 0 0 2.803-7.638c0-6.538-5.318-11.856-11.856-11.856S34.232 34.5 34.232 41.038c0 6.536 5.318 11.854 11.856 11.854a11.8 11.8 0 0 0 7.639-2.802l7.898 7.899a.997.997 0 0 0 1.414 0 .998.998 0 0 0 .001-1.414zM36.232 41.038c0-5.435 4.422-9.856 9.856-9.856s9.856 4.422 9.856 9.856-4.422 9.854-9.856 9.854-9.856-4.42-9.856-9.854z"/></svg>